<svg width="20" height="20" viewBox="0 0 20 20" fill="none" xmlns="http://www.w3.org/2000/svg">
<path fill-rule="evenodd" clip-rule="evenodd" d="M2.99584 3.9519C2 4.90381 2 6.43587 2 9.5C2 12.5641 2 14.0962 2.99584 15.0481C3.99167 16 5.59445 16 8.8 16H12.2C15.4056 16 17.0083 16 18.0042 15.0481C19 14.0962 19 12.5641 19 9.5C19 6.43587 19 4.90381 18.0042 3.9519C17.0083 3 15.4056 3 12.2 3H8.8C5.59445 3 3.99167 3 2.99584 3.9519ZM16.0897 5.85989C16.3151 6.11843 16.2786 6.50268 16.0081 6.71813L14.1411 8.20534C13.3877 8.8055 12.7771 9.29193 12.2381 9.62327C11.6767 9.96843 11.1299 10.1865 10.5 10.1865C9.87008 10.1865 9.32332 9.96843 8.7619 9.62327C8.22295 9.29194 7.6123 8.8055 6.8589 8.20534L4.99188 6.71813C4.72141 6.50268 4.68486 6.11843 4.91026 5.85989C5.13566 5.60134 5.53764 5.56641 5.80812 5.78187L7.64318 7.24362C8.43619 7.87531 8.98677 8.31246 9.4516 8.59823C9.90155 8.87485 10.2067 8.96771 10.5 8.96771C10.7933 8.96771 11.0984 8.87485 11.5484 8.59823C12.0132 8.31246 12.5638 7.87531 13.3568 7.24362L15.1919 5.78187C15.4624 5.56641 15.8643 5.60134 16.0897 5.85989Z" fill="#00A1C6"/>
</svg>
