<svg width="20" height="20" viewBox="0 0 20 20" fill="none" xmlns="http://www.w3.org/2000/svg">
<path d="M7.90554 4.06939L8.43287 5.01427C8.90875 5.86697 8.71771 6.98557 7.9682 7.73509C7.9682 7.73509 7.9682 7.73509 7.9682 7.73509C7.96809 7.7352 7.05917 8.64433 8.70742 10.2926C10.355 11.9402 11.2641 11.0326 11.2649 11.0318C11.2649 11.0318 11.2649 11.0318 11.2649 11.0318C12.0145 10.2823 13.133 10.0913 13.9857 10.5671L14.9306 11.0945C16.2182 11.813 16.3703 13.6188 15.2385 14.7505C14.5584 15.4306 13.7253 15.9598 12.8044 15.9947C11.254 16.0535 8.6211 15.6611 5.98001 13.02C3.33892 10.3789 2.94655 7.74599 3.00532 6.19563C3.04024 5.27468 3.5694 4.44157 4.24947 3.7615C5.38124 2.62973 7.18695 2.78179 7.90554 4.06939Z" fill="#00A1C6"/>
</svg>
