<svg width="170" height="170" viewBox="0 0 170 170" fill="none" xmlns="http://www.w3.org/2000/svg">
<g filter="url(#filter0_d_15717_2100)">
<rect x="25" y="21" width="120" height="120" rx="60" fill="#203A80" shape-rendering="crispEdges"/>
<path d="M102.76 78.7083H86.1458V62.0938C86.1458 61.1445 85.3763 60.375 84.4271 60.375C83.4778 60.375 82.7083 61.1445 82.7083 62.0938V78.7083H66.0938C65.1445 78.7083 64.375 79.4778 64.375 80.4271C64.375 81.3763 65.1445 82.1458 66.0938 82.1458H82.7083V98.7604C82.7083 99.7097 83.4778 100.479 84.4271 100.479C85.3763 100.479 86.1458 99.7097 86.1458 98.7604V82.1458H102.76C103.71 82.1458 104.479 81.3763 104.479 80.4271C104.479 79.4778 103.71 78.7083 102.76 78.7083Z" fill="white"/>
</g>
<defs>
<filter id="filter0_d_15717_2100" x="0" y="0" width="170" height="170" filterUnits="userSpaceOnUse" color-interpolation-filters="sRGB">
<feFlood flood-opacity="0" result="BackgroundImageFix"/>
<feColorMatrix in="SourceAlpha" type="matrix" values="0 0 0 0 0 0 0 0 0 0 0 0 0 0 0 0 0 0 127 0" result="hardAlpha"/>
<feOffset dy="4"/>
<feGaussianBlur stdDeviation="12.5"/>
<feComposite in2="hardAlpha" operator="out"/>
<feColorMatrix type="matrix" values="0 0 0 0 0.12549 0 0 0 0 0.227451 0 0 0 0 0.501961 0 0 0 0.5 0"/>
<feBlend mode="normal" in2="BackgroundImageFix" result="effect1_dropShadow_15717_2100"/>
<feBlend mode="normal" in="SourceGraphic" in2="effect1_dropShadow_15717_2100" result="shape"/>
</filter>
</defs>
</svg>
