<svg width="25" height="25" viewBox="0 0 25 25" fill="none" xmlns="http://www.w3.org/2000/svg">
<path fill-rule="evenodd" clip-rule="evenodd" d="M3.54462 5.89362C2.37305 7.06519 2.37305 8.95081 2.37305 12.722C2.37305 16.4933 2.37305 18.3789 3.54462 19.5505C4.71619 20.722 6.60181 20.722 10.373 20.722H14.373C18.1443 20.722 20.0299 20.722 21.2015 19.5505C22.373 18.3789 22.373 16.4933 22.373 12.722C22.373 8.95081 22.373 7.06519 21.2015 5.89362C20.0299 4.72205 18.1443 4.72205 14.373 4.72205H10.373C6.60181 4.72205 4.71619 4.72205 3.54462 5.89362ZM18.9492 8.24191C19.2144 8.56012 19.1714 9.03304 18.8532 9.29821L16.6567 11.1286C15.7703 11.8673 15.0519 12.466 14.4179 12.8738C13.7574 13.2986 13.1141 13.5669 12.373 13.5669C11.632 13.5669 10.9887 13.2986 10.3282 12.8738C9.69416 12.466 8.97576 11.8673 8.0894 11.1286L5.89291 9.29821C5.5747 9.03304 5.53171 8.56012 5.79688 8.24191C6.06205 7.9237 6.53498 7.88071 6.85318 8.14588L9.01208 9.94496C9.94504 10.7224 10.5928 11.2605 11.1396 11.6122C11.669 11.9526 12.028 12.0669 12.373 12.0669C12.7181 12.0669 13.0771 11.9526 13.6065 11.6122C14.1533 11.2605 14.8011 10.7224 15.734 9.94496L17.8929 8.14588C18.2111 7.88071 18.684 7.9237 18.9492 8.24191Z" fill="#1C274C"/>
</svg>
