<svg width="580" height="631" viewBox="0 0 580 631" fill="none" xmlns="http://www.w3.org/2000/svg">
<g opacity="0.2">
<path d="M398.503 222.514C409.948 216.792 423.419 216.792 434.864 222.514L760.646 385.406C790.609 400.387 790.609 443.145 760.646 458.126L434.864 621.017C423.419 626.74 409.948 626.74 398.503 621.017L72.7206 458.126C42.7581 443.145 42.758 400.387 72.7206 385.406L398.503 222.514Z" fill="#D3085B"/>
<path d="M398.503 308.505C409.948 314.227 423.419 314.227 434.864 308.505L606.845 222.514C618.29 216.792 631.761 216.792 643.205 222.514L760.646 281.235C790.609 296.216 790.609 338.974 760.646 353.955L434.864 516.847C423.419 522.569 409.948 522.569 398.503 516.847L72.7206 353.955C42.7581 338.974 42.758 296.216 72.7206 281.235L190.162 222.514C201.606 216.792 215.077 216.792 226.522 222.514L398.503 308.505Z" fill="#203A80"/>
<path d="M398.503 9.09007C409.948 3.36774 423.419 3.36774 434.864 9.09007L760.646 171.981C790.609 186.963 790.609 229.721 760.646 244.702L434.864 407.593C423.419 413.316 409.948 413.316 398.503 407.593L72.7206 244.702C42.7581 229.721 42.758 186.963 72.7206 171.981L398.503 9.09007Z" fill="#F2C300"/>
</g>
</svg>
