<svg width="50" height="38" viewBox="0 0 50 38" fill="none" xmlns="http://www.w3.org/2000/svg">
<path d="M23.8516 13.4613C24.5366 13.1188 25.3429 13.1188 26.0279 13.4613L45.527 23.2108C47.3203 24.1075 47.3203 26.6667 45.527 27.5634L26.0279 37.3129C25.3429 37.6554 24.5366 37.6554 23.8516 37.3129L4.35255 27.5634C2.5592 26.6667 2.5592 24.1075 4.35255 23.2108L23.8516 13.4613Z" fill="#D3085B"/>
<path d="M23.8516 18.6081C24.5366 18.9506 25.3429 18.9506 26.0279 18.6081L36.3215 13.4613C37.0065 13.1188 37.8128 13.1188 38.4978 13.4613L45.527 16.9759C47.3203 17.8726 47.3203 20.4318 45.527 21.3285L26.0279 31.078C25.3429 31.4205 24.5366 31.4205 23.8516 31.078L4.35255 21.3285C2.5592 20.4318 2.5592 17.8726 4.35255 16.9759L11.3817 13.4613C12.0667 13.1188 12.873 13.1188 13.558 13.4613L23.8516 18.6081Z" fill="#203A80"/>
<path d="M23.8516 0.687379C24.5366 0.34488 25.3429 0.34488 26.0279 0.687379L45.527 10.4369C47.3203 11.3336 47.3203 13.8928 45.527 14.7895L26.0279 24.539C25.3429 24.8815 24.5366 24.8815 23.8516 24.539L4.35255 14.7895C2.5592 13.8928 2.5592 11.3336 4.35255 10.4369L23.8516 0.687379Z" fill="#F2C300"/>
</svg>
