<svg width="41" height="40" viewBox="0 0 41 40" fill="none" xmlns="http://www.w3.org/2000/svg">
<g clip-path="url(#clip0_16017_96)">
<path d="M36.2152 8.87922C36.1717 8.87922 36.1717 8.83569 36.1282 8.79217C36.0846 8.74864 36.0846 8.70511 36.0411 8.66159L28.5547 0.261153C28.5112 0.217628 28.4241 0.174102 28.3806 0.130577C28.3371 0.130577 28.3371 0.0870511 28.2936 0.0870511C28.2065 0.0435256 28.0759 0 27.9454 0H9.57757C6.87898 0 4.65918 2.2198 4.65918 4.91839V35.0816C4.65918 37.7802 6.87898 40 9.57757 40H31.3404C34.0389 40 36.2587 37.7802 36.2587 35.0816V9.1839C36.2587 9.09684 36.2152 8.96627 36.2152 8.87922ZM28.7723 2.95974L33.6037 8.40043H28.7723V2.95974ZM34.6048 35.0381C34.6048 36.8662 33.1684 38.346 31.3404 38.346H9.57757C7.7495 38.346 6.31315 36.8662 6.31315 35.0816V4.87486C6.31315 3.04679 7.79302 1.61045 9.57757 1.61045H27.1184V9.1839C27.1184 9.61915 27.4666 10.0109 27.9454 10.0109H34.6048V35.0381Z" fill="#203A80"/>
<path d="M10.535 10.0109H17.8038C18.239 10.0109 18.6308 9.6627 18.6308 9.18392C18.6308 8.70514 18.2825 8.35693 17.8038 8.35693H10.535C10.0997 8.35693 9.70801 8.70514 9.70801 9.18392C9.70801 9.6627 10.0997 10.0109 10.535 10.0109ZM17.8038 29.9891H10.535C10.0997 29.9891 9.70801 30.3373 9.70801 30.8161C9.70801 31.2514 10.0562 31.6431 10.535 31.6431H17.8038C18.239 31.6431 18.6308 31.2949 18.6308 30.8161C18.6308 30.3809 18.239 29.9891 17.8038 29.9891ZM9.70801 14.6681C9.70801 15.1034 10.0562 15.4951 10.535 15.4951H29.9474C30.3827 15.4951 30.7744 15.1469 30.7744 14.6681C30.7744 14.2329 30.4262 13.8412 29.9474 13.8412H10.535C10.0997 13.8412 9.70801 14.1894 9.70801 14.6681ZM29.9474 17.9326H10.535C10.0997 17.9326 9.70801 18.2808 9.70801 18.7595C9.70801 19.1948 10.0562 19.5865 10.535 19.5865H29.9474C30.3827 19.5865 30.7744 19.2383 30.7744 18.7595C30.7744 18.2808 30.4262 17.9326 29.9474 17.9326ZM29.9474 21.9804H10.535C10.0997 21.9804 9.70801 22.3286 9.70801 22.8074C9.70801 23.2427 10.0562 23.6344 10.535 23.6344H29.9474C30.3827 23.6344 30.7744 23.2862 30.7744 22.8074C30.7744 22.3286 30.4262 21.9804 29.9474 21.9804ZM29.9474 26.0283H10.535C10.0997 26.0283 9.70801 26.3765 9.70801 26.8553C9.70801 27.2906 10.0562 27.6823 10.535 27.6823H29.9474C30.3827 27.6823 30.7744 27.3341 30.7744 26.8553C30.7744 26.42 30.4262 26.0283 29.9474 26.0283Z" fill="#203A80"/>
</g>
<defs>
<clipPath id="clip0_16017_96">
<rect width="40" height="40" fill="white" transform="translate(0.458984)"/>
</clipPath>
</defs>
</svg>
