<svg width="37" height="40" viewBox="0 0 37 40" fill="none" xmlns="http://www.w3.org/2000/svg">
<path d="M33.3941 5.20175H32.9195C33.8242 3.72889 33.4901 1.7515 32.0382 0.67426C30.4738 -0.486343 28.2506 -0.112756 27.1589 1.51877L24.6944 5.20183H3.52314C1.78294 5.20183 0.367188 6.61758 0.367188 8.35778V28.535C0.367188 30.2752 1.78294 31.691 3.52314 31.691H15.7818L14.8556 35.5813H12.8565C11.5536 35.5813 10.4936 36.6412 10.4936 37.9441V38.4374H8.02922C7.59775 38.4374 7.24799 38.7873 7.24799 39.2187C7.24799 39.6501 7.59775 39.9999 8.02922 39.9999H28.8881C29.3196 39.9999 29.6693 39.6501 29.6693 39.2187C29.6693 38.7873 29.3196 38.4374 28.8881 38.4374H26.4237V37.9441C26.4237 36.6412 25.3637 35.5813 24.0609 35.5813H22.0618L21.1355 31.691H33.3942C35.1344 31.691 36.5502 30.2752 36.5502 28.535V8.3577C36.5502 6.6175 35.1344 5.20175 33.3941 5.20175ZM22.2004 18.9358C20.979 19.7908 18.6907 18.6286 16.5054 19.7947C15.9722 17.0248 16.3084 14.4198 19.0837 13.8448C19.4424 13.77 19.8285 13.7362 20.1573 13.7428L22.9835 15.8397C23.3935 17.0325 23.2396 18.2084 22.2004 18.9358ZM22.9878 10.5619L25.1992 12.2026L23.4985 14.2761L21.4964 12.7906L22.9878 10.5619ZM28.4575 2.38774C29.0492 1.50331 30.256 1.29753 31.1072 1.92916C31.9588 2.56086 32.1113 3.77537 31.4365 4.59809L26.1911 10.9932L23.8576 9.26183L28.4575 2.38774ZM24.8612 37.9441V38.4374H12.0561V37.9441C12.0561 37.5028 12.4152 37.1438 12.8565 37.1438H24.0608C24.5021 37.1438 24.8612 37.5028 24.8612 37.9441ZM20.4555 35.5813H16.4617L17.3879 31.691H19.5293L20.4555 35.5813ZM34.9877 28.535C34.9877 29.4137 34.2729 30.1285 33.3942 30.1285H3.52322C2.64457 30.1285 1.92974 29.4137 1.92974 28.535V24.8765H4.16219C4.59367 24.8765 4.94343 24.5267 4.94343 24.0953C4.94343 23.6639 4.59367 23.3141 4.16219 23.3141H1.92958V8.3577C1.92958 7.47905 2.64441 6.76422 3.52306 6.76422H23.6488L20.0253 12.1793C18.4943 12.1931 16.9658 12.7264 15.9652 13.8945C14.6036 15.484 14.3644 17.9814 15.2542 21.3174C15.4063 21.8879 16.1181 22.0923 16.5488 21.6809C18.5689 19.7507 21.0848 21.8561 23.3378 20.0326C24.713 18.9193 25.0385 17.1495 24.5199 15.4945L31.6806 6.76422H33.394C34.2727 6.76422 34.9875 7.47905 34.9875 8.3577V23.314H10.4119C9.98044 23.314 9.63068 23.6638 9.63068 24.0952C9.63068 24.5266 9.98044 24.8764 10.4119 24.8764H34.9877V28.535Z" fill="#203A80"/>
<path d="M7.13594 23.3293C6.95868 23.3645 6.79916 23.4602 6.6846 23.6C6.57005 23.7398 6.50756 23.915 6.50781 24.0957C6.50781 24.5844 6.95461 24.9586 7.44141 24.8614C7.64455 24.8208 7.82327 24.7013 7.93827 24.529C8.05328 24.3567 8.09515 24.1458 8.05469 23.9426C7.96773 23.5153 7.5532 23.2453 7.13594 23.3293Z" fill="#203A80"/>
</svg>
