<svg width="305" height="230" viewBox="0 0 305 230" fill="none" xmlns="http://www.w3.org/2000/svg">
<path d="M145.87 81.2518C150.043 79.1649 154.956 79.1649 159.13 81.2518L277.939 140.656C288.866 146.12 288.866 161.713 277.939 167.177L159.13 226.581C154.956 228.668 150.043 228.668 145.87 226.581L27.0604 167.177C16.1334 161.713 16.1334 146.12 27.0604 140.656L145.87 81.2518Z" fill="#D3085B"/>
<path d="M145.87 112.612C150.043 114.699 154.956 114.699 159.13 112.612L221.85 81.2518C226.023 79.1649 230.936 79.1649 235.11 81.2518L277.939 102.667C288.866 108.13 288.866 123.723 277.939 129.187L159.13 188.591C154.956 190.678 150.043 190.678 145.87 188.591L27.0604 129.187C16.1334 123.723 16.1334 108.13 27.0604 102.667L69.8898 81.2518C74.0635 79.1649 78.9762 79.1649 83.15 81.2518L145.87 112.612Z" fill="#203A80"/>
<path d="M145.87 3.41857C150.043 1.3317 154.956 1.33169 159.13 3.41856L277.939 62.8232C288.866 68.2867 288.866 83.8801 277.939 89.3436L159.13 148.748C154.956 150.835 150.043 150.835 145.87 148.748L27.0604 89.3436C16.1334 83.8801 16.1334 68.2867 27.0604 62.8232L145.87 3.41857Z" fill="#F2C300"/>
</svg>
