<svg width="41" height="40" viewBox="0 0 41 40" fill="none" xmlns="http://www.w3.org/2000/svg">
<g clip-path="url(#clip0_16017_29)">
<path d="M39.6259 18.3333H37.8592L37.2342 13.3333C37.4553 13.319 37.6615 13.2174 37.8076 13.051C37.9538 12.8845 38.0278 12.6668 38.0134 12.4458C37.999 12.2248 37.8975 12.0186 37.731 11.8724C37.5646 11.7263 37.3469 11.6523 37.1259 11.6667H30.4592C30.2382 11.6523 30.0206 11.7263 29.8541 11.8724C29.6877 12.0186 29.5861 12.2248 29.5717 12.4458C29.5574 12.6668 29.6314 12.8845 29.7775 13.051C29.9236 13.2174 30.1299 13.319 30.3509 13.3333L29.7259 18.3333H26.1926L25.5676 13.3333C25.7886 13.319 25.9948 13.2174 26.141 13.051C26.2871 12.8845 26.3611 12.6668 26.3467 12.4458C26.3324 12.2248 26.2308 12.0186 26.0644 11.8724C25.8979 11.7263 25.6803 11.6523 25.4592 11.6667H18.7926C18.6831 11.6596 18.5734 11.6741 18.4696 11.7094C18.3657 11.7447 18.2699 11.8001 18.1875 11.8724C18.105 11.9448 18.0377 12.0327 17.9892 12.1311C17.9408 12.2294 17.9122 12.3364 17.9051 12.4458C17.898 12.5553 17.9125 12.665 17.9478 12.7689C17.9831 12.8727 18.0385 12.9685 18.1109 13.051C18.1832 13.1334 18.2711 13.2007 18.3695 13.2492C18.4678 13.2976 18.5748 13.3262 18.6842 13.3333L18.0592 18.3333H14.7259L13.7926 9.90833C13.7699 9.70357 13.6722 9.51445 13.5183 9.37749C13.3644 9.24052 13.1653 9.16542 12.9592 9.16667H9.62591V8.33333H12.1259C13.673 8.33333 15.1567 7.71875 16.2507 6.62479C17.3447 5.53083 17.9592 4.0471 17.9592 2.5V0.833333C17.9592 0.61232 17.8714 0.400358 17.7152 0.244078C17.5589 0.0877974 17.3469 0 17.1259 0L13.7926 0C12.3796 0.00187326 11.0153 0.51654 9.95322 1.4484C8.89108 2.38025 8.20328 3.66595 8.01758 5.06667C6.58424 3.94167 5.57591 4.16667 2.12591 4.16667C1.9049 4.16667 1.69294 4.25446 1.53666 4.41074C1.38038 4.56703 1.29258 4.77899 1.29258 5V6.66667C1.2944 7.46492 1.52548 8.24586 1.95834 8.91656C2.3912 9.58727 3.00761 10.1195 3.73425 10.45C0.242578 40.9917 0.300912 39.3083 0.667578 39.725C1.03425 40.1417 -1.48242 40 38.7926 40C39.0136 40 39.2256 39.9122 39.3818 39.7559C39.5381 39.5996 39.6259 39.3877 39.6259 39.1667V23.3333C39.8469 23.3333 40.0589 23.2455 40.2152 23.0893C40.3714 22.933 40.4592 22.721 40.4592 22.5V19.1667C40.4592 18.9457 40.3714 18.7337 40.2152 18.5774C40.0589 18.4211 39.8469 18.3333 39.6259 18.3333ZM9.62591 5.83333C9.62591 4.72826 10.0649 3.66846 10.8463 2.88706C11.6277 2.10565 12.6875 1.66667 13.7926 1.66667H16.2926V2.5C16.2926 3.60507 15.8536 4.66488 15.0722 5.44628C14.2908 6.22768 13.231 6.66667 12.1259 6.66667H9.62591V5.83333ZM38.7926 21.6667H10.4592V20H38.7926V21.6667ZM32.0259 13.3333H35.5592L36.1842 18.3333H31.4009L32.0259 13.3333ZM20.3592 13.3333H23.8926L24.5176 18.3333H19.7342L20.3592 13.3333ZM2.95924 6.66667V5.83333H5.45924C6.12229 5.83333 6.75817 6.09673 7.22701 6.56557C7.69585 7.03441 7.95925 7.67029 7.95925 8.33333V9.16667H5.45924C4.7962 9.16667 4.16032 8.90328 3.69148 8.43443C3.22264 7.96559 2.95924 7.32971 2.95924 6.66667ZM5.36758 10.8333H12.2176L13.0509 18.3333H9.62591C9.4049 18.3333 9.19294 18.4211 9.03666 18.5774C8.88038 18.7337 8.79258 18.9457 8.79258 19.1667V22.5C8.79258 22.721 8.88038 22.933 9.03666 23.0893C9.19294 23.2455 9.4049 23.3333 9.62591 23.3333V38.3333H2.22591L5.36758 10.8333ZM18.7926 38.3333V31.6667H30.4592V38.3333H18.7926ZM37.9592 38.3333H32.1259V30.8333C32.1259 30.6123 32.0381 30.4004 31.8818 30.2441C31.7256 30.0878 31.5136 30 31.2926 30H17.9592C17.7382 30 17.5263 30.0878 17.37 30.2441C17.2137 30.4004 17.1259 30.6123 17.1259 30.8333V38.3333H11.2926V23.3333H37.9592V38.3333Z" fill="#203A80"/>
<path d="M15.4593 27.4999H22.126C22.347 27.4999 22.559 27.4121 22.7152 27.2558C22.8715 27.0996 22.9593 26.8876 22.9593 26.6666C22.9593 26.4456 22.8715 26.2336 22.7152 26.0773C22.559 25.921 22.347 25.8333 22.126 25.8333H15.4593C15.2383 25.8333 15.0263 25.921 14.8701 26.0773C14.7138 26.2336 14.626 26.4456 14.626 26.6666C14.626 26.8876 14.7138 27.0996 14.8701 27.2558C15.0263 27.4121 15.2383 27.4999 15.4593 27.4999ZM28.7926 27.4999H35.4593C35.6803 27.4999 35.8923 27.4121 36.0486 27.2558C36.2048 27.0996 36.2926 26.8876 36.2926 26.6666C36.2926 26.4456 36.2048 26.2336 36.0486 26.0773C35.8923 25.921 35.6803 25.8333 35.4593 25.8333H28.7926C28.5716 25.8333 28.3597 25.921 28.2034 26.0773C28.0471 26.2336 27.9593 26.4456 27.9593 26.6666C27.9593 26.8876 28.0471 27.0996 28.2034 27.2558C28.3597 27.4121 28.5716 27.4999 28.7926 27.4999Z" fill="#203A80"/>
</g>
<defs>
<clipPath id="clip0_16017_29">
<rect width="40" height="40" fill="white" transform="translate(0.458984)"/>
</clipPath>
</defs>
</svg>
