<svg width="41" height="40" viewBox="0 0 41 40" fill="none" xmlns="http://www.w3.org/2000/svg">
<path d="M39.3717 23.2219C39.5343 23.1468 39.672 23.0268 39.7685 22.8759C39.865 22.7251 39.9163 22.5498 39.9163 22.3707V17.6294C39.9162 17.4502 39.8649 17.2749 39.7683 17.124C39.6717 16.9731 39.5339 16.8531 39.3713 16.7781L36.0063 15.2266L34.8539 12.4408L36.1336 8.96439C36.1954 8.79636 36.2079 8.61414 36.1695 8.43927C36.131 8.2644 36.0433 8.10419 35.9167 7.97759L32.5638 4.62478C32.4372 4.49818 32.277 4.41048 32.1021 4.37205C31.9273 4.33361 31.7451 4.34606 31.577 4.4079L28.1007 5.68759L25.3149 4.53517L23.7634 1.17024C23.6884 1.00756 23.5684 0.869765 23.4175 0.773178C23.2666 0.676591 23.0913 0.625254 22.9121 0.625244H18.1708C17.9917 0.625243 17.8164 0.676524 17.6656 0.773023C17.5147 0.869521 17.3947 1.0072 17.3196 1.16978L15.766 4.53501L12.98 5.68751L9.50359 4.40782C9.33557 4.34597 9.15335 4.33352 8.97848 4.37195C8.80361 4.41039 8.6434 4.49809 8.5168 4.6247L5.16398 7.97751C5.03732 8.10418 4.9496 8.26447 4.91119 8.43944C4.87279 8.6144 4.8853 8.7967 4.94727 8.96478L6.22875 12.4406L5.07453 15.2265L1.71148 16.7781C1.54885 16.8531 1.41112 16.9731 1.31457 17.124C1.21803 17.2748 1.16672 17.4502 1.16672 17.6293V22.3706C1.16672 22.5497 1.21798 22.725 1.31445 22.8758C1.41092 23.0266 1.54856 23.1467 1.71109 23.2217L5.07461 24.7755L6.22883 27.5596L5.50641 29.522L2.30211 32.7257C0.784453 34.2463 0.784766 36.7184 2.30273 38.2364C3.0368 38.9705 4.01578 39.3747 5.05953 39.3747C6.10328 39.3747 7.08227 38.9705 7.81633 38.2364L11.017 35.0358L12.9798 34.3126L15.766 35.467L17.3197 38.8303C17.3948 38.9929 17.5148 39.1305 17.6656 39.227C17.8165 39.3234 17.9917 39.3747 18.1708 39.3747H22.9121C23.0912 39.3747 23.2666 39.3234 23.4174 39.2268C23.5683 39.1303 23.6883 38.9926 23.7634 38.8299L25.3149 35.4668L27.1905 34.6894C27.9751 37.3924 30.4719 39.3747 33.4245 39.3747C37.004 39.3747 39.9161 36.4626 39.9161 32.8831C39.9161 29.9306 37.934 27.4338 35.231 26.6492L36.0063 24.7755L39.3716 23.2218L39.3717 23.2219ZM6.49062 36.9106C6.11078 37.2906 5.60258 37.4998 5.05969 37.4998C4.5168 37.4998 4.00859 37.2906 3.62875 36.9106C2.84109 36.123 2.84141 34.8399 3.62875 34.051L14.9783 22.7037C15.1008 22.5812 15.187 22.4271 15.2273 22.2585C15.2676 22.0899 15.2603 21.9135 15.2063 21.7488C15.0213 21.1847 14.9272 20.5948 14.9273 20.0011C14.9273 16.906 17.4454 14.388 20.5405 14.388C20.5737 14.388 20.6069 14.3883 20.6401 14.3888L18.5221 16.5082C18.1562 16.8744 18.1562 17.4677 18.5223 17.8338L22.7077 22.0194C23.0737 22.3854 23.6672 22.3856 24.0334 22.0195L26.1527 19.9016C26.1533 19.9347 26.1536 19.9679 26.1536 20.0011C26.1536 23.0962 23.6355 25.6142 20.5405 25.6142C19.9468 25.6144 19.3568 25.5202 18.7927 25.3352C18.628 25.2813 18.4516 25.2741 18.2831 25.3143C18.1145 25.3546 17.9604 25.4407 17.8379 25.5632L6.49055 36.9106L6.49062 36.9106ZM11.6144 20.0011C11.6144 15.0792 15.6186 11.075 20.5405 11.075C25.4623 11.075 29.4666 15.0792 29.4666 20.0011C29.4666 24.923 25.4623 28.9272 20.5405 28.9272C19.5436 28.9272 18.5534 28.7587 17.6175 28.4354L18.7747 27.2782C19.3528 27.4185 19.9456 27.4894 20.5405 27.4892C24.6695 27.4892 28.0286 24.13 28.0286 20.0011C28.0286 19.2008 27.9041 18.4161 27.6584 17.6688C27.6084 17.5166 27.5203 17.3799 27.4024 17.2715C27.2846 17.1631 27.1409 17.0866 26.9852 17.0495C26.8294 17.0124 26.6667 17.0158 26.5127 17.0593C26.3586 17.1029 26.2182 17.1852 26.105 17.2984L23.3708 20.0309L20.5107 17.1707L23.2431 14.4365C23.3564 14.3232 23.4387 14.1827 23.4822 14.0286C23.5257 13.8744 23.529 13.7117 23.4918 13.5559C23.4545 13.4001 23.378 13.2564 23.2695 13.1386C23.1609 13.0208 23.024 12.9328 22.8718 12.8829C22.1225 12.6374 21.3381 12.513 20.5403 12.513C16.4113 12.513 13.0522 15.8721 13.0522 20.0011C13.0522 20.5978 13.123 21.1894 13.2632 21.7668L12.106 22.9238C11.7809 21.9836 11.6147 20.9959 11.6142 20.0011H11.6144ZM24.2585 33.8751C24.0407 33.9653 23.8649 34.1343 23.7662 34.3484L22.3123 37.4997H18.7705L17.3146 34.348C17.2158 34.1341 17.04 33.9652 16.8223 33.875L13.5384 32.5144L16.1727 29.8801C17.5489 30.4872 19.0364 30.8012 20.5405 30.8021C26.4963 30.8021 31.3416 25.9567 31.3416 20.001C31.3416 14.0453 26.4962 9.19993 20.5405 9.19993C14.5848 9.19993 9.73938 14.0453 9.73938 20.001C9.73938 21.5073 10.0571 23.0004 10.6616 24.368L8.02734 27.0017L6.66641 23.7189C6.57623 23.5013 6.40739 23.3256 6.19352 23.2269L3.0418 21.7709V18.2291L6.19313 16.7753C6.40722 16.6765 6.57623 16.5007 6.66648 16.2829L8.10148 12.8194C8.19181 12.6015 8.19663 12.3576 8.115 12.1363L6.91414 8.87907L9.41867 6.37454L12.676 7.5736C12.897 7.65499 13.1406 7.65019 13.3583 7.56017L16.8218 6.12735C17.0398 6.03717 17.2157 5.86815 17.3146 5.65399L18.7706 2.50024H22.3121L23.766 5.6536C23.8649 5.86796 24.0409 6.03714 24.2591 6.12735L27.7226 7.56017C27.9402 7.65015 28.1838 7.65495 28.4048 7.5736L31.6621 6.37454L34.1669 8.87931L32.9678 12.1367C32.8864 12.3577 32.8912 12.6012 32.9813 12.8188L34.4141 16.2824C34.5043 16.5005 34.6735 16.6766 34.8878 16.7754L38.0412 18.2293V21.7708L34.8874 23.2268C34.6733 23.3257 34.5043 23.5016 34.4141 23.7195L33.3073 26.3945C29.8213 26.4568 26.9986 29.2793 26.936 32.7652L24.2584 33.8751H24.2585ZM38.0413 32.8831C38.0413 35.4287 35.9703 37.4997 33.4248 37.4997C30.8792 37.4997 28.8082 35.4287 28.8082 32.8831C28.8082 30.3376 30.8792 28.2666 33.4248 28.2666C35.9703 28.2666 38.0413 30.3376 38.0413 32.8831ZM32.5636 33.2495L35.3977 30.5302C35.7714 30.1718 36.3648 30.184 36.7233 30.5576C37.0817 30.9312 37.0695 31.5247 36.6959 31.8831L33.1991 35.2381C33.0247 35.4058 32.792 35.4994 32.5501 35.4992C32.4269 35.4993 32.305 35.4751 32.1912 35.428C32.0774 35.3809 31.9741 35.3117 31.8871 35.2245L30.1398 33.4773C29.7738 33.1111 29.7738 32.5176 30.1398 32.1514C30.506 31.7852 31.0995 31.7852 31.4657 32.1514L32.5637 33.2494L32.5636 33.2495Z" fill="#203A80"/>
</svg>
