<svg width="41" height="40" viewBox="0 0 41 40" fill="none" xmlns="http://www.w3.org/2000/svg">
<path fill-rule="evenodd" clip-rule="evenodd" d="M24.7028 24.586C24.7479 24.691 24.821 24.7815 24.914 24.8479C25.0071 24.9142 25.1165 24.9537 25.2304 24.9622C25.3444 24.9707 25.4584 24.9478 25.5603 24.896C25.6621 24.8442 25.7477 24.7654 25.8079 24.6683L27.3222 22.2281L30.1357 22.8042C30.2476 22.8271 30.3636 22.8189 30.4712 22.7805C30.5787 22.7421 30.6737 22.675 30.7458 22.5864C30.8179 22.4978 30.8644 22.3912 30.8801 22.278C30.8959 22.1649 30.8803 22.0496 30.8352 21.9447L28.7458 17.0935C28.8097 17.0664 28.8751 17.0385 28.944 17.009C30.0215 16.5476 30.6519 15.4556 30.5128 14.2917C30.4869 14.0756 30.4628 13.8832 30.4411 13.7106C30.3544 13.018 30.3107 12.6703 30.3576 12.4047C30.4044 12.1391 30.5643 11.8273 30.8828 11.2062C30.9622 11.0513 31.0507 10.8789 31.1489 10.6845C31.6777 9.63839 31.4587 8.39659 30.604 7.59456C30.4454 7.44558 30.3032 7.31378 30.1757 7.19534C29.6639 6.72065 29.407 6.48237 29.2722 6.24878C29.1373 6.01519 29.0594 5.67362 28.9042 4.99315C28.8654 4.82347 28.8223 4.6344 28.7726 4.42237C28.5053 3.28112 27.5394 2.47065 26.369 2.40558C26.1517 2.39347 25.9581 2.38386 25.7843 2.37519C25.0871 2.3405 24.7372 2.32308 24.4837 2.23081C24.2303 2.13854 23.9511 1.92698 23.3947 1.50542C23.2392 1.38739 23.0834 1.26984 22.9272 1.15276C21.9887 0.45042 20.7279 0.450342 19.7895 1.15276C19.6333 1.26984 19.4775 1.38739 19.322 1.50542C18.7656 1.92698 18.4864 2.13854 18.2329 2.23081C17.9795 2.32308 17.6295 2.3405 16.9324 2.37519C16.7585 2.38386 16.565 2.39347 16.3476 2.40558C15.1773 2.47065 14.2113 3.2812 13.944 4.42237C13.8944 4.6344 13.8512 4.82339 13.8125 4.99315C13.6572 5.67362 13.5794 6.01526 13.4444 6.24878C13.3096 6.48237 13.0527 6.72065 12.541 7.19534C12.4134 7.31378 12.2713 7.44558 12.1126 7.59456C11.258 8.39667 11.039 9.63847 11.5677 10.6846C11.6659 10.8788 11.7544 11.0512 11.8337 11.206C12.1522 11.8272 12.3122 12.139 12.359 12.4046C12.4059 12.6702 12.3622 13.0178 12.2754 13.7103C12.2538 13.8831 12.2297 14.0755 12.2038 14.2917C12.0647 15.4556 12.6951 16.5476 13.7726 17.009C13.9728 17.0947 14.1514 17.17 14.3118 17.2376L14.4519 17.2967L11.8889 22.8017C11.8407 22.9053 11.8218 23.0201 11.8342 23.1336C11.8467 23.2472 11.89 23.3551 11.9594 23.4458C12.0289 23.5365 12.1219 23.6064 12.2283 23.6479C12.3348 23.6894 12.4506 23.701 12.5631 23.6812L15.3922 23.1869L16.8351 25.67C16.8925 25.7687 16.9759 25.8499 17.0761 25.9046C17.1764 25.9593 17.2898 25.9855 17.4039 25.9803C17.518 25.9751 17.6285 25.9388 17.7234 25.8752C17.8183 25.8116 17.894 25.7233 17.9422 25.6197L20.4929 20.1409C20.9021 20.0179 21.1501 19.956 21.3585 19.956C21.6282 19.956 21.963 20.0592 22.6301 20.2651C22.7072 20.2889 22.789 20.3142 22.8747 20.3404L24.7028 24.586ZM27.1462 20.916C27.021 20.8904 26.891 20.9038 26.7736 20.9544C26.6562 21.0049 26.5572 21.0902 26.4897 21.1988L25.3772 22.9917L24.315 20.5254C25.044 20.4242 25.7113 20.0157 26.1379 19.3634C26.257 19.1811 26.3622 19.0183 26.4566 18.8721C26.8353 18.2857 27.0253 17.9914 27.2319 17.8179C27.3247 17.7401 27.4411 17.6698 27.5991 17.5914L29.2133 21.3393L27.1462 20.916ZM17.3138 24.0066L16.2537 22.1822C16.1895 22.0717 16.0929 21.9836 15.9771 21.9297C15.8612 21.8757 15.7316 21.8586 15.6058 21.8806L13.5272 22.2437L15.5567 17.8846C15.738 18.0648 15.9254 18.3546 16.2595 18.8721C16.3653 19.0362 16.4715 19.2 16.5783 19.3634C17.1056 20.1699 18.0004 20.6043 18.9254 20.5451L17.3138 24.0066ZM21.358 18.7053C20.9327 18.7053 20.5072 18.8271 19.7179 19.0707C19.5337 19.1277 19.3494 19.1842 19.165 19.24C18.5699 19.4197 17.9649 19.1999 17.6244 18.6792C17.5066 18.4993 17.4028 18.3385 17.3096 18.1941C16.4133 16.8061 16.3194 16.7274 14.7968 16.0857C14.6384 16.019 14.462 15.9446 14.2644 15.86C13.6926 15.615 13.3708 15.0577 13.4446 14.44C13.4701 14.2265 13.494 14.0364 13.5154 13.8659C13.7209 12.2267 13.6996 12.1059 12.9456 10.6356C12.8575 10.4642 12.77 10.2925 12.6829 10.1206C12.4023 9.56542 12.5141 8.93167 12.9677 8.50597C13.1245 8.35886 13.2648 8.2287 13.3908 8.11175C14.6022 6.98808 14.6634 6.8819 15.0309 5.2712C15.0691 5.10355 15.1117 4.9169 15.1608 4.70745C15.3026 4.10183 15.7956 3.68815 16.4167 3.65362C16.6314 3.64167 16.8226 3.63214 16.9943 3.62362C18.6444 3.54144 18.7597 3.49948 20.0766 2.50175C20.2136 2.39792 20.3662 2.28229 20.5383 2.15347C21.0364 1.78073 21.6798 1.78073 22.1779 2.15347C22.35 2.28229 22.5026 2.39792 22.6396 2.50175C23.9565 3.49948 24.0718 3.54144 25.7219 3.62362C25.8936 3.63214 26.0848 3.64167 26.2995 3.65362C26.9206 3.68815 27.4136 4.10183 27.5554 4.70745C27.6045 4.91683 27.6471 5.10347 27.6853 5.27112C28.0528 6.88183 28.114 6.98808 29.3254 8.11167C29.4514 8.22862 29.5917 8.35878 29.7485 8.50589C30.2021 8.93159 30.3137 9.56534 30.0332 10.1205C29.9461 10.2925 29.8585 10.4643 29.7704 10.6357C29.0165 12.1059 28.9952 12.2267 29.2008 13.866C29.2222 14.0366 29.2461 14.2265 29.2715 14.4399C29.3454 15.0576 29.0236 15.615 28.4518 15.8599C28.2541 15.9445 28.0777 16.0189 27.9193 16.0857C26.3969 16.7273 26.3029 16.8061 25.4066 18.194C25.3022 18.3561 25.1973 18.5178 25.0919 18.6792C24.7515 19.1998 24.1469 19.42 23.5512 19.24C23.3454 19.1778 23.1626 19.1214 22.9983 19.0707C22.2088 18.8271 21.7833 18.7053 21.358 18.7053ZM27.5609 10.588C27.5609 7.16769 24.7783 4.38511 21.358 4.38511C17.9378 4.38511 15.1552 7.16769 15.1552 10.588C15.1552 14.0083 17.9378 16.791 21.358 16.791C24.7783 16.791 27.5609 14.0084 27.5609 10.588ZM21.3579 15.541C18.6269 15.541 16.4051 13.3191 16.4051 10.588C16.4051 7.85698 18.6269 5.63511 21.3579 5.63511C24.089 5.63511 26.3108 7.85698 26.3108 10.588C26.3109 13.3191 24.089 15.541 21.3579 15.541ZM24.7906 9.11433L20.5227 12.9875C20.4078 13.092 20.2581 13.1499 20.1028 13.1497C20.0207 13.1498 19.9394 13.1337 19.8635 13.1023C19.7877 13.0709 19.7188 13.0248 19.6608 12.9667L17.9036 11.2095C17.845 11.1516 17.7984 11.0826 17.7665 11.0067C17.7346 10.9307 17.7181 10.8491 17.7178 10.7668C17.7176 10.6844 17.7336 10.6027 17.7651 10.5266C17.7965 10.4504 17.8427 10.3812 17.9009 10.3229C17.9592 10.2647 18.0284 10.2185 18.1046 10.1871C18.1807 10.1557 18.2624 10.1396 18.3448 10.1399C18.4272 10.1401 18.5087 10.1567 18.5847 10.1886C18.6606 10.2204 18.7296 10.267 18.7875 10.3257L20.1236 11.6618L23.9506 8.18878C24.0737 8.07991 24.2348 8.02392 24.3989 8.03294C24.563 8.04196 24.717 8.11526 24.8274 8.23697C24.9379 8.35867 24.9959 8.51899 24.989 8.6832C24.9822 8.84741 24.9109 9.0023 24.7906 9.11433ZM36.6558 29.5921C37.4797 28.7685 37.898 27.7293 37.8658 26.5871L37.5614 15.8423C37.5314 14.7813 36.4765 13.8306 35.3391 13.8306C35.3282 13.8306 35.3173 13.8307 35.3065 13.8308C34.7515 13.8397 32.9422 14.1386 32.9554 17.6115L32.9776 23.4482C32.9784 23.5784 32.9699 23.7085 32.9524 23.8375C32.9075 23.784 32.8603 23.7324 32.8108 23.6831C32.0394 22.9117 30.7761 22.902 29.9347 23.6608C29.9138 23.6796 29.8941 23.6999 29.876 23.7214C28.9345 24.8345 27.7777 25.8095 26.8481 26.5928C26.5221 26.8676 26.2143 27.1271 25.9615 27.3549C24.9014 28.3103 24.7599 29.6268 24.7613 30.7885L24.7663 34.9453L24.2273 34.9407C23.8624 34.9373 23.5185 35.0771 23.2576 35.3335C22.9966 35.59 22.8511 35.932 22.848 36.2964L22.834 37.9224C22.8309 38.2868 22.9704 38.6313 23.2269 38.8922C23.4833 39.1532 23.8254 39.2985 24.1898 39.3017L32.6364 39.3742L32.6483 39.3743C33.0083 39.3743 33.3481 39.235 33.6061 38.9814C33.8671 38.7249 34.0125 38.3829 34.0156 38.0185L34.0296 36.3925C34.0327 36.0281 33.8932 35.6836 33.6367 35.4227C33.3803 35.1617 33.0383 35.0164 32.6738 35.0132L31.9789 35.0073V34.2691L36.6558 29.5921ZM32.7796 36.3818L32.7656 38.0078C32.7653 38.047 32.746 38.0742 32.7298 38.09C32.7192 38.1012 32.7063 38.11 32.692 38.1159C32.6778 38.1218 32.6624 38.1247 32.647 38.1244L24.2004 38.0518C24.1613 38.0515 24.1341 38.0322 24.1183 38.016C24.1024 37.9999 24.0836 37.9725 24.084 37.9332L24.0979 36.3073C24.0983 36.2681 24.1176 36.2409 24.1337 36.225C24.1497 36.2093 24.1769 36.1907 24.2154 36.1907H24.2165L32.6631 36.2632C32.6941 36.2639 32.7237 36.2767 32.7455 36.2988C32.7672 36.321 32.7795 36.3508 32.7796 36.3818ZM26.0163 34.9561L26.0113 30.7871C26.0097 29.5141 26.2378 28.7888 26.7984 28.2835C27.0357 28.0696 27.322 27.8282 27.6536 27.5489C28.6092 26.7434 29.7963 25.743 30.7995 24.5651C31.1504 24.2708 31.6294 24.2695 31.9269 24.5671C32.2436 24.8837 32.244 25.2604 31.9296 25.6868C31.4326 26.2454 30.9101 26.7514 30.3572 27.2864C30.0919 27.5433 29.8173 27.8089 29.5404 28.0859C29.4824 28.1439 29.4364 28.2128 29.405 28.2887C29.3736 28.3645 29.3574 28.4457 29.3574 28.5278C29.3574 28.6099 29.3736 28.6912 29.405 28.767C29.4364 28.8428 29.4825 28.9117 29.5405 28.9697C29.6626 29.0917 29.8224 29.1528 29.9824 29.1528C30.1424 29.1528 30.3024 29.0917 30.4244 28.9696C30.694 28.7 30.9647 28.438 31.2265 28.1846C31.8042 27.6257 32.3497 27.0977 32.8842 26.4947C32.887 26.4915 33.3028 25.9829 33.3028 25.9829C33.9286 25.2125 34.2311 24.3817 34.2276 23.4435L34.2054 17.6068C34.1995 16.0599 34.6291 15.0919 35.3265 15.0807L35.3391 15.0807C35.8033 15.0807 36.3008 15.4865 36.3119 15.8778L36.6162 26.6225C36.6389 27.4238 36.3548 28.1256 35.7719 28.7083L30.9119 33.5683C30.7947 33.6855 30.7289 33.8444 30.7289 34.0102V34.9966L26.0163 34.9561ZM24.6992 36.9429C24.723 36.8803 24.7591 36.8231 24.8052 36.7746C24.8514 36.726 24.9067 36.6872 24.9681 36.6602C25.0294 36.6333 25.0954 36.6188 25.1624 36.6176C25.2294 36.6164 25.2959 36.6285 25.3581 36.6533C25.4204 36.678 25.4771 36.7149 25.5249 36.7618C25.5728 36.8086 25.6108 36.8645 25.6369 36.9262C25.663 36.9879 25.6765 37.0542 25.6767 37.1212C25.6769 37.1881 25.6638 37.2545 25.6382 37.3164C25.5873 37.439 25.4903 37.5367 25.368 37.5883C25.2457 37.64 25.108 37.6414 24.9847 37.5924C24.8613 37.5433 24.7622 37.4477 24.7088 37.3262C24.6554 37.2046 24.6519 37.067 24.6992 36.9429ZM17.8218 35.3336C17.6941 35.2073 17.5426 35.1076 17.3762 35.0402C17.2097 34.9728 17.0315 34.939 16.8519 34.9408L16.313 34.9454L16.318 30.7887C16.3194 29.6269 16.1779 28.3104 15.1179 27.355C14.8652 27.1271 14.5572 26.8678 14.2313 26.5931C13.3018 25.8096 12.1449 24.8346 11.2034 23.7215C11.1853 23.7 11.1657 23.6798 11.1447 23.661C10.3029 22.9021 9.03959 22.912 8.26857 23.6832C8.2191 23.7326 8.17187 23.7841 8.12701 23.8377C8.10943 23.7087 8.101 23.5786 8.10177 23.4484L8.12404 17.6116C8.13716 14.1387 6.32787 13.8399 5.77295 13.8309C5.76206 13.8307 5.75118 13.8307 5.74029 13.8307C4.60287 13.8307 3.54795 14.7814 3.51802 15.8424L3.21365 26.5872C3.18138 27.7295 3.59974 28.7685 4.42349 29.5922L9.10045 34.2692V35.0075L8.40552 35.0134C8.04107 35.0165 7.69904 35.1619 7.44263 35.4228C7.18615 35.6838 7.04662 36.0282 7.04974 36.3927L7.06373 38.0186C7.06685 38.3831 7.21224 38.725 7.47318 38.9815C7.73123 39.2352 8.07091 39.3745 8.43099 39.3745L8.44295 39.3744L16.8895 39.3018C17.254 39.2987 17.596 39.1533 17.8524 38.8924C18.1089 38.6314 18.2484 38.287 18.2453 37.9225L18.2313 36.2966C18.2283 35.9321 18.0827 35.5901 17.8218 35.3336ZM10.3504 34.0102C10.3504 33.9281 10.3343 33.8469 10.3029 33.771C10.2715 33.6952 10.2254 33.6263 10.1674 33.5683L5.30732 28.7082C4.72451 28.1255 4.44045 27.4238 4.4631 26.6225L4.76748 15.8777C4.77865 15.4828 5.28841 15.0739 5.75287 15.0807C6.45021 15.0919 6.87982 16.0599 6.87396 17.6067L6.8517 23.4435C6.84818 24.3817 7.15068 25.2124 7.77763 25.9842L8.17888 26.4755C8.18162 26.4789 8.1924 26.4915 8.19521 26.4947C8.72966 27.0977 9.27521 27.6257 9.85287 28.1846C10.1147 28.4381 10.3854 28.7 10.6551 28.9696C10.713 29.0278 10.7819 29.0739 10.8578 29.1053C10.9336 29.1367 11.0149 29.1529 11.097 29.1528C11.1791 29.1529 11.2604 29.1368 11.3362 29.1053C11.4121 29.0739 11.4809 29.0278 11.5389 28.9697C11.5969 28.9117 11.643 28.8428 11.6744 28.767C11.7058 28.6912 11.722 28.6099 11.722 28.5278C11.722 28.4457 11.7058 28.3645 11.6744 28.2887C11.643 28.2128 11.597 28.1439 11.539 28.0859C11.2621 27.809 10.9876 27.5433 10.7222 27.2864C10.1693 26.7514 9.64677 26.2454 9.14982 25.6868C8.83545 25.2605 8.83576 24.8838 9.15248 24.5671C9.45021 24.2695 9.92904 24.2708 10.28 24.5651C11.2831 25.7431 12.4701 26.7435 13.4259 27.5489C13.7574 27.8284 14.0437 28.0696 14.2811 28.2836C14.8416 28.7888 15.0697 29.5142 15.0681 30.7872L15.0631 34.9562L10.3505 34.9967L10.3504 34.0102ZM16.961 38.0161C16.9504 38.0273 16.9376 38.0362 16.9235 38.0423C16.9094 38.0485 16.8942 38.0517 16.8788 38.0519L8.43224 38.1245C8.41684 38.1246 8.40157 38.1216 8.38734 38.1157C8.37311 38.1098 8.36022 38.1011 8.34943 38.0901C8.33826 38.0795 8.32934 38.0667 8.32319 38.0526C8.31705 38.0385 8.3138 38.0233 8.31365 38.0078L8.29966 36.3819C8.29927 36.3427 8.3181 36.3152 8.33396 36.2991C8.34982 36.283 8.37701 36.2636 8.41615 36.2633L16.8626 36.1907H16.8638C16.9024 36.1907 16.9296 36.2094 16.9455 36.2251C16.9617 36.241 16.981 36.2682 16.9813 36.3074L16.9953 37.9333C16.9957 37.9725 16.9769 38 16.961 38.0161ZM16.3801 36.9429C16.4052 37.0047 16.4178 37.0708 16.4172 37.1374C16.4165 37.204 16.4028 37.2699 16.3766 37.3312C16.3504 37.3925 16.3124 37.448 16.2647 37.4945C16.217 37.541 16.1606 37.5776 16.0987 37.6023C16.0367 37.6269 15.9706 37.639 15.9039 37.638C15.8373 37.6369 15.7716 37.6227 15.7104 37.5961C15.6493 37.5695 15.5941 37.5312 15.5479 37.4831C15.5017 37.4351 15.4654 37.3784 15.4412 37.3164C15.3928 37.1921 15.3954 37.0537 15.4486 36.9313C15.5018 36.809 15.6013 36.7127 15.7252 36.6633C15.8492 36.614 15.9876 36.6158 16.1103 36.6681C16.233 36.7205 16.33 36.8193 16.3801 36.9429Z" fill="#203A80"/>
</svg>
